<?xml version="1.0" standalone="no"?>
<svg xmlns:xlink="http://www.w3.org/1999/xlink" id="wave" style="transform:rotate(180deg); transition: 0.3s" viewBox="0 0 1440 490" version="1.1" xmlns="http://www.w3.org/2000/svg"><defs><linearGradient id="sw-gradient-0" x1="0" x2="0" y1="1" y2="0"><stop stop-color="#c2ffe6" offset="0%"/><stop stop-color="#c2ffe6" offset="100%"/></linearGradient></defs><path style="transform:translate(0, 0px); opacity:1" fill="url(#sw-gradient-0)" d="M0,98L40,147C80,196,160,294,240,326.7C320,359,400,327,480,285.8C560,245,640,196,720,212.3C800,229,880,310,960,326.7C1040,343,1120,294,1200,269.5C1280,245,1360,245,1440,228.7C1520,212,1600,180,1680,163.3C1760,147,1840,147,1920,179.7C2000,212,2080,278,2160,269.5C2240,261,2320,180,2400,179.7C2480,180,2560,261,2640,285.8C2720,310,2800,278,2880,285.8C2960,294,3040,343,3120,375.7C3200,408,3280,425,3360,432.8C3440,441,3520,441,3600,400.2C3680,359,3760,278,3840,277.7C3920,278,4000,359,4080,343C4160,327,4240,212,4320,212.3C4400,212,4480,327,4560,343C4640,359,4720,278,4800,253.2C4880,229,4960,261,5040,253.2C5120,245,5200,196,5280,212.3C5360,229,5440,310,5520,359.3C5600,408,5680,425,5720,432.8L5760,441L5760,490L5720,490C5680,490,5600,490,5520,490C5440,490,5360,490,5280,490C5200,490,5120,490,5040,490C4960,490,4880,490,4800,490C4720,490,4640,490,4560,490C4480,490,4400,490,4320,490C4240,490,4160,490,4080,490C4000,490,3920,490,3840,490C3760,490,3680,490,3600,490C3520,490,3440,490,3360,490C3280,490,3200,490,3120,490C3040,490,2960,490,2880,490C2800,490,2720,490,2640,490C2560,490,2480,490,2400,490C2320,490,2240,490,2160,490C2080,490,2000,490,1920,490C1840,490,1760,490,1680,490C1600,490,1520,490,1440,490C1360,490,1280,490,1200,490C1120,490,1040,490,960,490C880,490,800,490,720,490C640,490,560,490,480,490C400,490,320,490,240,490C160,490,80,490,40,490L0,490Z"/></svg>