<?xml version="1.0" standalone="no"?>
<svg xmlns:xlink="http://www.w3.org/1999/xlink" id="wave" style="transform:rotate(0deg); transition: 0.3s" viewBox="0 0 1440 490" version="1.1" xmlns="http://www.w3.org/2000/svg"><defs><linearGradient id="sw-gradient-0" x1="0" x2="0" y1="1" y2="0"><stop stop-color="rgba(101.572, 86.092, 195.804, 1)" offset="0%"/><stop stop-color="rgba(131.858, 243.621, 242.47, 1)" offset="100%"/></linearGradient></defs><path style="transform:translate(0, 0px); opacity:1" fill="url(#sw-gradient-0)" d="M0,441L60,432.8C120,425,240,408,360,408.3C480,408,600,425,720,408.3C840,392,960,343,1080,326.7C1200,310,1320,327,1440,343C1560,359,1680,376,1800,326.7C1920,278,2040,163,2160,98C2280,33,2400,16,2520,49C2640,82,2760,163,2880,212.3C3000,261,3120,278,3240,277.7C3360,278,3480,261,3600,220.5C3720,180,3840,114,3960,147C4080,180,4200,310,4320,359.3C4440,408,4560,376,4680,343C4800,310,4920,278,5040,220.5C5160,163,5280,82,5400,89.8C5520,98,5640,196,5760,220.5C5880,245,6000,196,6120,179.7C6240,163,6360,180,6480,220.5C6600,261,6720,327,6840,367.5C6960,408,7080,425,7200,400.2C7320,376,7440,310,7560,253.2C7680,196,7800,147,7920,155.2C8040,163,8160,229,8280,285.8C8400,343,8520,392,8580,416.5L8640,441L8640,490L8580,490C8520,490,8400,490,8280,490C8160,490,8040,490,7920,490C7800,490,7680,490,7560,490C7440,490,7320,490,7200,490C7080,490,6960,490,6840,490C6720,490,6600,490,6480,490C6360,490,6240,490,6120,490C6000,490,5880,490,5760,490C5640,490,5520,490,5400,490C5280,490,5160,490,5040,490C4920,490,4800,490,4680,490C4560,490,4440,490,4320,490C4200,490,4080,490,3960,490C3840,490,3720,490,3600,490C3480,490,3360,490,3240,490C3120,490,3000,490,2880,490C2760,490,2640,490,2520,490C2400,490,2280,490,2160,490C2040,490,1920,490,1800,490C1680,490,1560,490,1440,490C1320,490,1200,490,1080,490C960,490,840,490,720,490C600,490,480,490,360,490C240,490,120,490,60,490L0,490Z"/></svg>